<?xml version="1.0" standalone="no"?>
<!DOCTYPE svg PUBLIC "-//W3C//DTD SVG 20010904//EN"
 "http://www.w3.org/TR/2001/REC-SVG-20010904/DTD/svg10.dtd">
<svg version="1.0" xmlns="http://www.w3.org/2000/svg"
 width="128.000000pt" height="128.000000pt" viewBox="0 0 128.000000 128.000000"
 preserveAspectRatio="xMidYMid meet">
<metadata>
Created by potrace 1.11, written by Peter Selinger 2001-2013
</metadata>
<g transform="translate(0.000000,128.000000) scale(0.100000,-0.100000)"
fill="#000000" stroke="none">
<path d="M600 1273 c-32 -12 -49 -37 -56 -79 -5 -37 -27 -72 -42 -68 -2 1 -23
21 -47 44 -50 49 -84 54 -138 19 -41 -27 -52 -53 -43 -102 3 -17 8 -42 10 -54
6 -34 -23 -49 -64 -33 -3 1 -8 2 -12 1 -5 0 -8 3 -8 7 0 5 -14 8 -31 7 -43 -3
-89 -51 -96 -102 -5 -36 -2 -43 31 -75 23 -22 36 -44 36 -60 0 -22 -7 -27 -46
-38 -67 -19 -90 -45 -89 -100 1 -68 20 -93 80 -106 71 -15 74 -33 17 -98 -30
-34 -33 -43 -28 -77 6 -40 35 -77 74 -98 17 -9 27 -9 45 1 12 7 26 11 31 10 4
-2 14 2 21 8 8 7 17 4 30 -10 15 -17 16 -24 7 -46 -15 -33 -15 -95 1 -114 16
-19 53 -40 88 -50 23 -7 33 -2 70 34 24 23 50 41 57 40 6 -1 19 -2 27 -3 9 0
15 -7 14 -14 -6 -28 14 -78 38 -97 17 -14 41 -20 73 -20 57 0 89 29 97 87 3
21 10 41 17 45 17 12 49 -2 78 -33 40 -43 66 -50 108 -26 74 41 83 60 62 135
-8 29 -12 56 -8 59 10 10 86 6 100 -6 7 -6 17 -6 26 -1 8 5 17 7 21 4 12 -7
60 66 66 101 5 31 1 40 -33 74 -50 49 -55 76 -17 87 30 9 42 11 60 13 7 0 21
10 32 22 17 19 21 59 12 137 -1 14 -61 42 -94 45 -11 1 -24 12 -30 25 -10 21
-7 28 22 54 52 46 62 73 43 111 -18 37 -49 71 -74 80 -10 3 -36 0 -59 -8 -54
-19 -58 -19 -70 8 -8 17 -6 34 5 67 19 55 5 86 -51 116 -47 26 -90 18 -126
-25 -22 -26 -42 -35 -72 -32 -6 0 -12 13 -13 29 -4 45 -22 90 -40 97 -25 10
-95 15 -112 8z m135 -488 c106 -59 113 -218 13 -290 -66 -47 -169 -40 -230 15
-50 46 -61 170 -19 228 21 30 75 65 85 55 3 -3 6 -1 6 5 0 12 53 20 85 13 11
-2 38 -14 60 -26z"/>
</g>
</svg>
